<svg width="374" height="732" viewBox="0 0 374 732" fill="none" xmlns="http://www.w3.org/2000/svg">
<path d="M236 282.6C236 282.6 236 249.9 236 224.3C236 207.7 222.6 194.3 206 194.3H43C26.4 194.3 13 180.9 13 164.3C13 147.7 26.4 134.3 43 134.3H329.4C346 134.3 359.4 120.9 359.4 104.3C359.4 87.7 346 74.3 329.4 74.3H266C249.4 74.3 236 60.9 236 44.3C236 26.7 236 8 236 8" stroke="#579AA3" stroke-width="6" stroke-miterlimit="10"/>
<path d="M245.8 295.6H224.1C222.5 295.6 221.3 294.3 221.3 292.8V290.3C221.3 288.7 222.6 287.5 224.1 287.5H245.8C247.4 287.5 248.6 288.8 248.6 290.3V292.8C248.7 294.3 247.4 295.6 245.8 295.6Z" fill="#579AA3"/>
<path d="M245.4 282.8H224.6C222.8 282.8 221.3 281.3 221.3 279.5V277.8C221.3 276 222.8 274.5 224.6 274.5H245.4C247.2 274.5 248.7 276 248.7 277.8V279.5C248.7 281.3 247.2 282.8 245.4 282.8Z" fill="#579AA3"/>
<path d="M244.9 288.8H225.1C223.9 288.8 222.9 287.8 222.9 286.6V283.7C222.9 282.5 223.9 281.5 225.1 281.5H244.9C246.1 281.5 247.2 282.5 247.2 283.7V286.6C247.2 287.8 246.2 288.8 244.9 288.8Z" fill="#579AA3"/>
<path d="M227 274.6C227 274.6 227 241.9 227 216.3C227 199.7 213.6 186.3 197 186.3H34C17.4 186.3 4 172.9 4 156.3C4 139.7 17.4 126.3 34 126.3H320.4C337 126.3 350.4 112.9 350.4 96.3C350.4 79.7 337 66.3 320.4 66.3H257C240.4 66.3 227 52.9 227 36.3C227 18.7 227 0 227 0" stroke="#2F3140" stroke-width="8" stroke-miterlimit="10" stroke-linecap="round" stroke-linejoin="round"/>
<path d="M237.8 295.6H216.1C214.5 295.6 213.3 294.3 213.3 292.8V290.3C213.3 288.7 214.6 287.5 216.1 287.5H237.8C239.4 287.5 240.6 288.8 240.6 290.3V292.8C240.7 294.3 239.4 295.6 237.8 295.6Z" fill="#2F3140"/>
<path d="M237.4 282.8H216.6C214.8 282.8 213.3 281.3 213.3 279.5V277.8C213.3 276 214.8 274.5 216.6 274.5H237.4C239.2 274.5 240.7 276 240.7 277.8V279.5C240.7 281.3 239.2 282.8 237.4 282.8Z" fill="#2F3140"/>
<path d="M236.9 288.3H217.1C215.9 288.3 214.9 287.3 214.9 286.1V284.2C214.9 283 215.9 282 217.1 282H236.9C238.1 282 239.1 283 239.1 284.2V286.1C239.2 287.3 238.2 288.3 236.9 288.3Z" fill="#2F3140"/>
<path d="M334.8 360.1C333.3 356.6 331.2 353.4 328.9 350.5C328.7 350.1 328.6 349.7 328.4 349.3C322.8 334.9 306.6 325.9 306.6 325.9C291.5 316.8 276.2 311.3 261.7 307.6C257.9 306.6 254.2 309.5 254.2 313.4V331.2H218.2V313.4C218.2 309.5 214.5 306.6 210.7 307.6C196.1 311.3 180.9 316.8 165.8 325.9C165.8 325.9 149.6 334.8 144 349.3C138.9 362.3 132 384.3 125.7 410.7L116.4 413.7C111.5 434.8 107.1 458.4 104.3 482.2L113 479.5C112.1 486.4 111.4 493.4 110.8 500.4L102.3 502.6C100 532.4 100.8 561.6 106.9 585.7L116.1 587.1C116.2 587.4 116.3 587.8 116.4 588.1C148.1 664 166.1 708.9 179.8 718.1C193.3 727.2 220.6 729.4 236.3 728.8C251.8 729.5 278.7 728 292.4 719.1C293.6 718.5 294.2 717.8 295.3 717.1C310 707.9 327.2 671.7 357.3 604.7L363.3 591.3L363.4 591C386 520.1 350.3 396.9 334.8 360.1Z" fill="#579AA3" stroke="#579AA3" stroke-width="6" stroke-miterlimit="10"/>
<path d="M119 480.3H108L93 484.2C90.7 514 91.5 543.2 97.6 567.3L127.4 571.8L119 480.3Z" fill="#7C7C94"/>
<path d="M119 480.3H108L93 484.2C90.7 514 91.5 543.2 97.6 567.3L127.4 571.8L119 480.3Z" stroke="#2F3140" stroke-width="3" stroke-miterlimit="10" stroke-linecap="round" stroke-linejoin="round"/>
<path d="M109.7 459.3L122.7 390.3L107.2 395.3C102.3 416.4 97.9 440 95.1 463.8L109.7 459.3Z" fill="#7C7C94"/>
<path d="M122 480.3H111L96 484.2C93.7 514 94.5 543.2 100.6 567.3L130.4 571.8L122 480.3Z" fill="#6C6D81"/>
<path d="M112.7 459.3L125.7 390.3L110.2 395.3C105.3 416.4 100.9 440 98.1 463.8L112.7 459.3Z" fill="#6C6D81"/>
<path d="M109.7 459.3L122.7 390.3L107.2 395.3C102.3 416.4 97.9 440 95.1 463.8L109.7 459.3Z" stroke="#2F3140" stroke-width="3" stroke-miterlimit="10" stroke-linecap="round" stroke-linejoin="round"/>
<path d="M325.6 341.8C319.3 326.8 302.3 317.6 300.5 316.7C294.9 313.6 289.1 310.8 283.1 308.3V701.2C284.3 700.6 285.6 699.9 286.7 699.2C301.4 690 317.9 653.1 348.1 586.2L354.1 572.8L354.2 572.5C376.8 501.8 341.1 378.7 325.6 341.8Z" fill="#565864"/>
<path d="M325.6 341.8C319.3 326.8 302.3 317.6 300.5 316.7C294.9 313.6 289.1 310.8 283.1 308.3V701.2C284.3 700.6 285.6 699.9 286.7 699.2C301.4 690 317.9 653.1 348.1 586.2L354.1 572.8L354.2 572.5C376.8 501.8 341.1 378.7 325.6 341.8Z" stroke="#2F3140" stroke-width="3" stroke-miterlimit="10" stroke-linecap="round" stroke-linejoin="round"/>
<path d="M319.2 331C313.6 316.6 297.4 307.6 297.4 307.6C282.3 298.5 267 293 252.5 289.3C248.7 288.3 245 291.2 245 295.1V313H209V295.2C209 291.3 205.3 288.4 201.5 289.4C186.9 293.1 171.7 298.6 156.6 307.7C156.6 307.7 140.4 316.6 134.8 331.1C119.1 371.2 85.8 498.1 107.1 569.8C138.8 645.7 156.8 690.6 170.5 699.8C184 708.9 211.3 711.1 227 710.5C242.7 711.2 270 709 283.5 699.8C297.1 690.6 315.2 645.7 346.9 569.8C368.2 498 334.9 371.1 319.2 331Z" fill="#51566A"/>
<path d="M314.3 390.3C314.3 364.2 312.1 339 307.9 315.4C302.4 310.4 297.4 307.6 297.4 307.6C282.3 298.5 267 293 252.5 289.3C248.7 288.3 245 291.2 245 295.1V313H209V295.2C209 291.3 205.3 288.4 201.5 289.4C186.9 293.1 171.7 298.6 156.6 307.7C156.6 307.7 140.4 316.6 134.8 331.1C119.1 371.2 85.8 498.1 107.1 569.8C116.4 592.2 124.6 611.8 131.8 628.6C145.2 636.2 159.4 640.3 174.2 640.3C251.6 640.2 314.3 528.3 314.3 390.3Z" fill="#6C6D81"/>
<path d="M319.2 331C313.6 316.6 297.4 307.6 297.4 307.6C282.3 298.5 267 293 252.5 289.3C248.7 288.3 245 291.2 245 295.1V313H209V295.2C209 291.3 205.3 288.4 201.5 289.4C186.9 293.1 171.7 298.6 156.6 307.7C156.6 307.7 140.4 316.6 134.8 331.1C119.1 371.2 85.8 498.1 107.1 569.8C138.8 645.7 156.8 690.6 170.5 699.8C184 708.9 211.3 711.1 227 710.5C242.7 711.2 270 709 283.5 699.8C297.1 690.6 315.2 645.7 346.9 569.8C368.2 498 334.9 371.1 319.2 331Z" stroke="#2F3140" stroke-width="6" stroke-miterlimit="10" stroke-linecap="round" stroke-linejoin="round"/>
<path d="M209 307.1V295C209 291.1 205.4 288.3 201.6 289.2C186.9 292.9 171.6 298.4 156.4 307.6C156.4 307.6 140 316.5 134.4 331C125.2 354.4 110.1 407.4 103.3 461.7C102.7 466.5 107.7 470 112 467.7C126.7 459.8 142.4 451.5 153.2 446.4C177.6 434.8 210.9 424.9 222.6 421.6C225.2 420.9 226.9 418.5 226.9 415.9V319C226.9 315.7 224.2 313.1 221 313.1H214.9C211.7 313 209 310.4 209 307.1Z" stroke="#2F3140" stroke-width="6" stroke-miterlimit="10" stroke-linecap="round" stroke-linejoin="round"/>
<path d="M319.2 331C313.6 316.6 297.4 307.6 297.4 307.6C282.3 298.5 267 293 252.5 289.3C248.7 288.3 245 291.2 245 295.1V313H227V420.4C227 420.4 270.3 432 300.5 446.4C311.3 451.5 327 459.8 341.6 467.7C345.9 470 350.9 466.5 350.3 461.7C343.5 407.4 328.4 354.4 319.2 331Z" stroke="#2F3140" stroke-width="6" stroke-miterlimit="10" stroke-linecap="round" stroke-linejoin="round"/>
<path d="M227 534C217.1 534 209 525.9 209 516V306C209 300.7 213.3 296.3 218.7 296.3H235.4C240.7 296.3 245.1 300.6 245.1 306V516C245 526 236.9 534 227 534Z" fill="#7C7C94"/>
<path d="M245 352.3V306C245 300.7 240.7 296.3 235.3 296.3H218.6C213.3 296.3 208.9 300.6 208.9 306V504.8L245 352.3Z" fill="#9093A2"/>
<path d="M234.9 468.6V440.3C234.9 436 231.4 432.4 227 432.4C222.6 432.4 219.1 435.9 219.1 440.3V468.6H234.9Z" fill="#3C4155"/>
<path d="M234.9 476.6V504.9C234.9 509.2 231.4 512.8 227 512.8C222.6 512.8 219.1 509.3 219.1 504.9V476.6H234.9V476.6Z" fill="#3C4155"/>
<path d="M227 534C217.1 534 209 525.9 209 516V306.1C209 300.7 213.4 296.3 218.8 296.3H235.3C240.7 296.3 245.1 300.7 245.1 306.1V516C245 526 236.9 534 227 534Z" stroke="#2F3140" stroke-width="6" stroke-miterlimit="10" stroke-linecap="round" stroke-linejoin="round"/>
<path d="M230.2 402.3H223.7C220 402.3 217 399.3 217 395.6V351.1C217 347.4 220 344.4 223.7 344.4H230.2C233.9 344.4 236.9 347.4 236.9 351.1V395.6C237 399.3 233.9 402.3 230.2 402.3Z" fill="#3B4254"/>
<path d="M218.1 396.5H235.9" stroke="#C06D4F" stroke-width="2" stroke-miterlimit="10" stroke-linecap="round" stroke-linejoin="round"/>
<path d="M218.1 390.5H235.9" stroke="#C06D4F" stroke-width="2" stroke-miterlimit="10" stroke-linecap="round" stroke-linejoin="round"/>
<path d="M218.1 384.5H235.9" stroke="#C06D4F" stroke-width="2" stroke-miterlimit="10" stroke-linecap="round" stroke-linejoin="round"/>
<path d="M218.1 378.5H235.9" stroke="#C06D4F" stroke-width="2" stroke-miterlimit="10" stroke-linecap="round" stroke-linejoin="round"/>
<path d="M218.1 372.5H235.9" stroke="#C06D4F" stroke-width="2" stroke-miterlimit="10" stroke-linecap="round" stroke-linejoin="round"/>
<path d="M218.1 366.5H235.9" stroke="#C06D4F" stroke-width="2" stroke-miterlimit="10" stroke-linecap="round" stroke-linejoin="round"/>
<path d="M218.1 360.5H235.9" stroke="#C06D4F" stroke-width="2" stroke-miterlimit="10" stroke-linecap="round" stroke-linejoin="round"/>
<path d="M218.1 354.5H235.9" stroke="#C06D4F" stroke-width="2" stroke-miterlimit="10" stroke-linecap="round" stroke-linejoin="round"/>
<path d="M218.1 348.5H235.9" stroke="#C06D4F" stroke-width="2" stroke-miterlimit="10" stroke-linecap="round" stroke-linejoin="round"/>
<path d="M230.2 402.3C228 402.3 225.9 402.3 223.7 402.3C220 402.3 216.7 399.3 216.3 395.6C215 380.8 215 365.9 216.3 351.1C216.7 347.4 220 344.4 223.7 344.4C225.9 344.4 228 344.4 230.2 344.4C233.9 344.4 237.2 347.4 237.6 351.1C238.9 365.9 238.9 380.8 237.6 395.6C237.3 399.3 233.9 402.3 230.2 402.3Z" stroke="#2F3140" stroke-width="3" stroke-miterlimit="10" stroke-linecap="round" stroke-linejoin="round"/>
<path d="M232 402.3H222C219.2 402.3 217 400.1 217 397.3V349.3C217 346.5 219.2 344.3 222 344.3H232C234.8 344.3 237 346.5 237 349.3V397.3C237 400.1 234.7 402.3 232 402.3Z" stroke="#2F3140" stroke-width="3" stroke-miterlimit="10" stroke-linecap="round" stroke-linejoin="round"/>
<path d="M234.9 468.6V440.3C234.9 436 231.4 432.4 227 432.4C222.6 432.4 219.1 435.9 219.1 440.3V468.6H234.9Z" stroke="#2F3140" stroke-width="3" stroke-miterlimit="10" stroke-linecap="round" stroke-linejoin="round"/>
<path d="M234.9 476.6V504.9C234.9 509.2 231.4 512.8 227 512.8C222.6 512.8 219.1 509.3 219.1 504.9V476.6H234.9V476.6Z" stroke="#2F3140" stroke-width="3" stroke-miterlimit="10" stroke-linecap="round" stroke-linejoin="round"/>
</svg>
